Sprint_06300001_forces_filt999Hz.mot
version=1
nRows=28
nColumns=19
inDegrees=yes
endheader
time	R_ground_force_vx	R_ground_force_vy	R_ground_force_vz	R_ground_force_px	R_ground_force_py	R_ground_force_pz	R_ground_torque_x	R_ground_torque_y	R_ground_torque_z	L_ground_force_vx	L_ground_force_vy	L_ground_force_vz	L_ground_force_px	L_ground_force_py	L_ground_force_pz	L_ground_torque_x	L_ground_torque_y	L_ground_torque_z	
0.000000	  0.000000	  0.000000	  0.000000	  0.269815	  0.000000	 -0.249750	  0.000000	  0.000000	  0.000000	  0.000000	  0.000000	  0.000000	  1.121056	  0.000000	 -0.369382	  0.000000	  0.000000	  0.000000
0.000500	  0.000000	  0.000000	  0.000000	  0.267775	 -0.000000	 -0.249627	  0.000000	  0.000000	  0.000000	  0.000000	  0.000000	  0.000000	  1.124381	 -0.000000	 -0.369379	  0.000000	  0.000000	  0.000000
0.001000	  0.000000	  0.000000	  0.000000	  0.265735	 -0.000000	 -0.249504	  0.000000	  0.000000	  0.000000	  0.000000	  0.000000	  0.000000	  1.127705	 -0.000000	 -0.369375	  0.000000	  0.000000	  0.000000
0.001500	  0.000000	  0.000000	  0.000000	  0.263695	 -0.000000	 -0.249381	  0.000000	  0.000000	  0.000000	  0.000000	  0.000000	  0.000000	  1.131029	 -0.000000	 -0.369372	  0.000000	  0.000000	  0.000000
0.002000	  0.000000	  0.000000	  0.000000	  0.261654	 -0.000000	 -0.249258	  0.000000	  0.000000	  0.000000	  0.000000	  0.000000	  0.000000	  1.134353	 -0.000000	 -0.369369	  0.000000	  0.000000	  0.000000
0.002500	  0.000000	  0.000000	  0.000000	  0.259614	  0.000000	 -0.249135	  0.000000	  0.000000	  0.000000	  0.000000	  0.000000	  0.000000	  1.137677	  0.000000	 -0.369365	  0.000000	  0.000000	  0.000000
0.003000	  0.000000	  0.000000	  0.000000	  0.257574	  0.000000	 -0.249012	  0.000000	  0.000000	  0.000000	  0.000000	  0.000000	  0.000000	  1.141002	  0.000000	 -0.369362	  0.000000	  0.000000	  0.000000
0.003500	  0.000000	  0.000000	  0.000000	  0.255534	  0.000000	 -0.248889	  0.000000	  0.000000	  0.000000	  0.000000	  0.000000	  0.000000	  1.144326	  0.000000	 -0.369358	  0.000000	  0.000000	  0.000000
0.004000	  0.000000	  0.000000	  0.000000	  0.253493	  0.000000	 -0.248766	  0.000000	  0.000000	  0.000000	  0.000000	  0.000000	  0.000000	  1.147650	  0.000000	 -0.369355	  0.000000	  0.000000	  0.000000
0.004500	  0.000000	  0.000000	  0.000000	  0.251453	  0.000000	 -0.248643	  0.000000	  0.000000	  0.000000	  0.000000	  0.000000	  0.000000	  1.150974	  0.000000	 -0.369352	  0.000000	  0.000000	  0.000000
0.005000	  0.000000	  0.000000	  0.000000	  0.249413	  0.000000	 -0.248520	  0.000000	  0.000000	  0.000000	  0.000000	  0.000000	  0.000000	  1.154298	  0.000000	 -0.369348	  0.000000	  0.000000	  0.000000
0.005500	  0.000000	  0.000000	  0.000000	  0.247058	  0.000000	 -0.248515	  0.000000	  0.000000	  0.000000	  0.000000	  0.000000	  0.000000	  1.157572	  0.000000	 -0.369391	  0.000000	  0.000000	  0.000000
0.006000	  0.000000	  0.000000	  0.000000	  0.244703	  0.000000	 -0.248509	  0.000000	  0.000000	  0.000000	  0.000000	  0.000000	  0.000000	  1.160845	  0.000000	 -0.369433	  0.000000	  0.000000	  0.000000
0.006500	  0.000000	  0.000000	  0.000000	  0.242348	  0.000000	 -0.248503	  0.000000	  0.000000	  0.000000	  0.000000	  0.000000	  0.000000	  1.164118	  0.000000	 -0.369475	  0.000000	  0.000000	  0.000000
0.007000	  0.000000	  0.000000	  0.000000	  0.239993	  0.000000	 -0.248498	  0.000000	  0.000000	  0.000000	  0.000000	  0.000000	  0.000000	  1.167391	  0.000000	 -0.369517	  0.000000	  0.000000	  0.000000
0.007500	  0.000000	  0.000000	  0.000000	  0.237638	  0.000000	 -0.248492	  0.000000	  0.000000	  0.000000	  0.000000	  0.000000	  0.000000	  1.170664	  0.000000	 -0.369559	  0.000000	  0.000000	  0.000000
0.008000	  0.000000	  0.000000	  0.000000	  0.235283	  0.000000	 -0.248487	  0.000000	  0.000000	  0.000000	  0.000000	  0.000000	  0.000000	  1.173938	  0.000000	 -0.369602	  0.000000	  0.000000	  0.000000
0.008500	  0.000000	  0.000000	  0.000000	  0.232929	  0.000000	 -0.248481	  0.000000	  0.000000	  0.000000	  0.000000	  0.000000	  0.000000	  1.177211	  0.000000	 -0.369644	  0.000000	  0.000000	  0.000000
0.009000	  0.000000	  0.000000	  0.000000	  0.230574	  0.000000	 -0.248476	  0.000000	  0.000000	  0.000000	  0.000000	  0.000000	  0.000000	  1.180484	  0.000000	 -0.369686	  0.000000	  0.000000	  0.000000
0.009500	  0.000000	  0.000000	  0.000000	  0.228219	  0.000000	 -0.248470	  0.000000	  0.000000	  0.000000	  0.000000	  0.000000	  0.000000	  1.183757	  0.000000	 -0.369728	  0.000000	  0.000000	  0.000000
0.010000	  0.000000	  0.000000	  0.000000	  0.225864	  0.000000	 -0.248464	  0.000000	  0.000000	  0.000000	  0.000000	  0.000000	  0.000000	  1.187030	  0.000000	 -0.369771	  0.000000	  0.000000	  0.000000
0.010500	  0.000000	  0.000000	  0.000000	  0.223981	  0.000000	 -0.248498	  0.000000	  0.000000	  0.000000	  0.000000	  0.000000	  0.000000	  1.190214	  0.000000	 -0.369881	  0.000000	  0.000000	  0.000000
0.011000	  0.000000	  0.000000	  0.000000	  0.222098	  0.000000	 -0.248532	  0.000000	  0.000000	  0.000000	  0.000000	  0.000000	  0.000000	  1.193398	  0.000000	 -0.369992	  0.000000	  0.000000	  0.000000
0.011500	  0.000000	  0.000000	  0.000000	  0.220214	  0.000000	 -0.248566	  0.000000	  0.000000	  0.000000	  0.000000	  0.000000	  0.000000	  1.196582	  0.000000	 -0.370102	  0.000000	  0.000000	  0.000000
0.012000	  0.000000	  0.000000	  0.000000	  0.218331	  0.000000	 -0.248600	  0.000000	  0.000000	  0.000000	  0.000000	  0.000000	  0.000000	  1.199766	  0.000000	 -0.370213	  0.000000	  0.000000	  0.000000
0.012500	  0.000000	  0.000000	  0.000000	  0.216448	  0.000000	 -0.248633	  0.000000	  0.000000	  0.000000	  0.000000	  0.000000	  0.000000	  1.202950	  0.000000	 -0.370323	  0.000000	  0.000000	  0.000000
0.013000	  0.000000	  0.000000	  0.000000	  0.214565	  0.000000	 -0.248667	  0.000000	  0.000000	  0.000000	  0.000000	  0.000000	  0.000000	  1.206134	  0.000000	 -0.370434	  0.000000	  0.000000	  0.000000
0.013500	  0.000000	  0.000000	  0.000000	  0.212682	  0.000000	 -0.248701	  0.000000	  0.000000	  0.000000	  0.000000	  0.000000	  0.000000	  1.209317	  0.000000	 -0.370545	  0.000000	  0.000000	  0.000000
